<?xml version="1.0" encoding="utf-8" standalone="no"?>
<!DOCTYPE svg PUBLIC "-//W3C//DTD SVG 1.1//EN"
  "http://www.w3.org/Graphics/SVG/1.1/DTD/svg11.dtd">
<svg xmlns:xlink="http://www.w3.org/1999/xlink" width="847.790592pt" height="392.5925pt" viewBox="0 0 847.790592 392.5925" xmlns="http://www.w3.org/2000/svg" version="1.1">
 <metadata>
  <rdf:RDF xmlns:dc="http://purl.org/dc/elements/1.1/" xmlns:cc="http://creativecommons.org/ns#" xmlns:rdf="http://www.w3.org/1999/02/22-rdf-syntax-ns#">
   <cc:Work>
    <dc:type rdf:resource="http://purl.org/dc/dcmitype/StillImage"/>
    <dc:date>2025-02-17T05:35:57.378491</dc:date>
    <dc:format>image/svg+xml</dc:format>
    <dc:creator>
     <cc:Agent>
      <dc:title>Matplotlib v3.8.4, https://matplotlib.org/</dc:title>
     </cc:Agent>
    </dc:creator>
   </cc:Work>
  </rdf:RDF>
 </metadata>
 <defs>
  <style type="text/css">*{stroke-linejoin: round; stroke-linecap: butt}</style>
 </defs>
 <g id="figure_1">
  <g id="patch_1">
   <path d="M 0 392.5925 
L 847.790592 392.5925 
L 847.790592 0 
L 0 0 
z
" style="fill: #ffffff"/>
  </g>
  <g id="axes_1">
   <g id="patch_2">
    <path d="M 53.328125 354.958125 
L 408.419034 354.958125 
L 408.419034 22.318125 
L 53.328125 22.318125 
z
" style="fill: #ffffff"/>
   </g>
   <g id="patch_3">
    <path d="M 143.137333 354.958125 
L 151.405747 354.958125 
L 151.405747 354.385595 
L 143.137333 354.385595 
z
" clip-path="url(#p82a25d1d4d)" style="fill: #440256; stroke: #000000; stroke-linejoin: miter"/>
   </g>
   <g id="patch_4">
    <path d="M 151.405747 354.958125 
L 159.67416 354.958125 
L 159.67416 354.67186 
L 151.405747 354.67186 
z
" clip-path="url(#p82a25d1d4d)" style="fill: #440154; stroke: #000000; stroke-linejoin: miter"/>
   </g>
   <g id="patch_5">
    <path d="M 159.67416 354.958125 
L 167.942574 354.958125 
L 167.942574 353.813065 
L 159.67416 353.813065 
z
" clip-path="url(#p82a25d1d4d)" style="fill: #450559; stroke: #000000; stroke-linejoin: miter"/>
   </g>
   <g id="patch_6">
    <path d="M 167.942574 354.958125 
L 176.210988 354.958125 
L 176.210988 353.813065 
L 167.942574 353.813065 
z
" clip-path="url(#p82a25d1d4d)" style="fill: #450559; stroke: #000000; stroke-linejoin: miter"/>
   </g>
   <g id="patch_7">
    <path d="M 176.210988 354.958125 
L 184.479401 354.958125 
L 184.479401 352.95427 
L 176.210988 352.95427 
z
" clip-path="url(#p82a25d1d4d)" style="fill: #460b5e; stroke: #000000; stroke-linejoin: miter"/>
   </g>
   <g id="patch_8">
    <path d="M 184.479401 354.958125 
L 192.747815 354.958125 
L 192.747815 353.5268 
L 184.479401 353.5268 
z
" clip-path="url(#p82a25d1d4d)" style="fill: #46075a; stroke: #000000; stroke-linejoin: miter"/>
   </g>
   <g id="patch_9">
    <path d="M 192.747815 354.958125 
L 201.016228 354.958125 
L 201.016228 351.236679 
L 192.747815 351.236679 
z
" clip-path="url(#p82a25d1d4d)" style="fill: #481668; stroke: #000000; stroke-linejoin: miter"/>
   </g>
   <g id="patch_10">
    <path d="M 201.016228 354.958125 
L 209.284642 354.958125 
L 209.284642 348.374029 
L 201.016228 348.374029 
z
" clip-path="url(#p82a25d1d4d)" style="fill: #482576; stroke: #000000; stroke-linejoin: miter"/>
   </g>
   <g id="patch_11">
    <path d="M 209.284642 354.958125 
L 217.553056 354.958125 
L 217.553056 348.660294 
L 209.284642 348.660294 
z
" clip-path="url(#p82a25d1d4d)" style="fill: #482475; stroke: #000000; stroke-linejoin: miter"/>
   </g>
   <g id="patch_12">
    <path d="M 217.553056 354.958125 
L 225.821469 354.958125 
L 225.821469 344.652583 
L 217.553056 344.652583 
z
" clip-path="url(#p82a25d1d4d)" style="fill: #443983; stroke: #000000; stroke-linejoin: miter"/>
   </g>
   <g id="patch_13">
    <path d="M 225.821469 354.958125 
L 234.089883 354.958125 
L 234.089883 339.213547 
L 225.821469 339.213547 
z
" clip-path="url(#p82a25d1d4d)" style="fill: #3a548c; stroke: #000000; stroke-linejoin: miter"/>
   </g>
   <g id="patch_14">
    <path d="M 234.089883 354.958125 
L 242.358297 354.958125 
L 242.358297 337.209691 
L 234.089883 337.209691 
z
" clip-path="url(#p82a25d1d4d)" style="fill: #365d8d; stroke: #000000; stroke-linejoin: miter"/>
   </g>
   <g id="patch_15">
    <path d="M 242.358297 354.958125 
L 250.62671 354.958125 
L 250.62671 330.33933 
L 242.358297 330.33933 
z
" clip-path="url(#p82a25d1d4d)" style="fill: #297a8e; stroke: #000000; stroke-linejoin: miter"/>
   </g>
   <g id="patch_16">
    <path d="M 250.62671 354.958125 
L 258.895124 354.958125 
L 258.895124 325.759089 
L 250.62671 325.759089 
z
" clip-path="url(#p82a25d1d4d)" style="fill: #228c8d; stroke: #000000; stroke-linejoin: miter"/>
   </g>
   <g id="patch_17">
    <path d="M 258.895124 354.958125 
L 267.163537 354.958125 
L 267.163537 327.476679 
L 258.895124 327.476679 
z
" clip-path="url(#p82a25d1d4d)" style="fill: #25858e; stroke: #000000; stroke-linejoin: miter"/>
   </g>
   <g id="patch_18">
    <path d="M 267.163537 354.958125 
L 275.431951 354.958125 
L 275.431951 335.205836 
L 267.163537 335.205836 
z
" clip-path="url(#p82a25d1d4d)" style="fill: #31668e; stroke: #000000; stroke-linejoin: miter"/>
   </g>
   <g id="patch_19">
    <path d="M 275.431951 354.958125 
L 283.700365 354.958125 
L 283.700365 334.919571 
L 275.431951 334.919571 
z
" clip-path="url(#p82a25d1d4d)" style="fill: #31678e; stroke: #000000; stroke-linejoin: miter"/>
   </g>
   <g id="patch_20">
    <path d="M 283.700365 354.958125 
L 291.968778 354.958125 
L 291.968778 337.495956 
L 283.700365 337.495956 
z
" clip-path="url(#p82a25d1d4d)" style="fill: #365c8d; stroke: #000000; stroke-linejoin: miter"/>
   </g>
   <g id="patch_21">
    <path d="M 291.968778 354.958125 
L 300.237192 354.958125 
L 300.237192 328.335474 
L 291.968778 328.335474 
z
" clip-path="url(#p82a25d1d4d)" style="fill: #26828e; stroke: #000000; stroke-linejoin: miter"/>
   </g>
   <g id="patch_22">
    <path d="M 300.237192 354.958125 
L 308.505605 354.958125 
L 308.505605 327.762944 
L 300.237192 327.762944 
z
" clip-path="url(#p82a25d1d4d)" style="fill: #25848e; stroke: #000000; stroke-linejoin: miter"/>
   </g>
   <g id="patch_23">
    <path d="M 308.505605 354.958125 
L 316.774019 354.958125 
L 316.774019 322.037643 
L 308.505605 322.037643 
z
" clip-path="url(#p82a25d1d4d)" style="fill: #1e9b8a; stroke: #000000; stroke-linejoin: miter"/>
   </g>
   <g id="patch_24">
    <path d="M 316.774019 354.958125 
L 325.042433 354.958125 
L 325.042433 308.010655 
L 316.774019 308.010655 
z
" clip-path="url(#p82a25d1d4d)" style="fill: #6ece58; stroke: #000000; stroke-linejoin: miter"/>
   </g>
   <g id="patch_25">
    <path d="M 325.042433 354.958125 
L 333.310846 354.958125 
L 333.310846 304.002944 
L 325.042433 304.002944 
z
" clip-path="url(#p82a25d1d4d)" style="fill: #98d83e; stroke: #000000; stroke-linejoin: miter"/>
   </g>
   <g id="patch_26">
    <path d="M 333.310846 354.958125 
L 341.57926 354.958125 
L 341.57926 302.571619 
L 333.310846 302.571619 
z
" clip-path="url(#p82a25d1d4d)" style="fill: #a8db34; stroke: #000000; stroke-linejoin: miter"/>
   </g>
   <g id="patch_27">
    <path d="M 341.57926 354.958125 
L 349.847674 354.958125 
L 349.847674 299.422703 
L 341.57926 299.422703 
z
" clip-path="url(#p82a25d1d4d)" style="fill: #cde11d; stroke: #000000; stroke-linejoin: miter"/>
   </g>
   <g id="patch_28">
    <path d="M 349.847674 354.958125 
L 358.116087 354.958125 
L 358.116087 300.281498 
L 349.847674 300.281498 
z
" clip-path="url(#p82a25d1d4d)" style="fill: #c2df23; stroke: #000000; stroke-linejoin: miter"/>
   </g>
   <g id="patch_29">
    <path d="M 358.116087 354.958125 
L 366.384501 354.958125 
L 366.384501 294.842462 
L 358.116087 294.842462 
z
" clip-path="url(#p82a25d1d4d)" style="fill: #fde725; stroke: #000000; stroke-linejoin: miter"/>
   </g>
   <g id="patch_30">
    <path d="M 366.384501 354.958125 
L 374.652914 354.958125 
L 374.652914 310.873306 
L 366.384501 310.873306 
z
" clip-path="url(#p82a25d1d4d)" style="fill: #54c568; stroke: #000000; stroke-linejoin: miter"/>
   </g>
   <g id="patch_31">
    <path d="M 374.652914 354.958125 
L 382.921328 354.958125 
L 382.921328 325.759089 
L 374.652914 325.759089 
z
" clip-path="url(#p82a25d1d4d)" style="fill: #228c8d; stroke: #000000; stroke-linejoin: miter"/>
   </g>
   <g id="patch_32">
    <path d="M 382.921328 354.958125 
L 391.189742 354.958125 
L 391.189742 348.087764 
L 382.921328 348.087764 
z
" clip-path="url(#p82a25d1d4d)" style="fill: #482878; stroke: #000000; stroke-linejoin: miter"/>
   </g>
   <g id="matplotlib.axis_1">
    <g id="xtick_1">
     <g id="line2d_1">
      <defs>
       <path id="mc516bf8693" d="M 0 0 
L 0 3.5 
" style="stroke: #000000; stroke-width: 0.8"/>
      </defs>
      <g>
       <use xlink:href="#mc516bf8693" x="56.809408" y="354.958125" style="stroke: #000000; stroke-width: 0.8"/>
      </g>
     </g>
     <g id="text_1">
      <!-- 0 -->
      <g transform="translate(53.628158 369.556562) scale(0.1 -0.1)">
       <defs>
        <path id="DejaVuSans-30" d="M 2034 4250 
Q 1547 4250 1301 3770 
Q 1056 3291 1056 2328 
Q 1056 1369 1301 889 
Q 1547 409 2034 409 
Q 2525 409 2770 889 
Q 3016 1369 3016 2328 
Q 3016 3291 2770 3770 
Q 2525 4250 2034 4250 
z
M 2034 4750 
Q 2819 4750 3233 4129 
Q 3647 3509 3647 2328 
Q 3647 1150 3233 529 
Q 2819 -91 2034 -91 
Q 1250 -91 836 529 
Q 422 1150 422 2328 
Q 422 3509 836 4129 
Q 1250 4750 2034 4750 
z
" transform="scale(0.015625)"/>
       </defs>
       <use xlink:href="#DejaVuSans-30"/>
      </g>
     </g>
    </g>
    <g id="xtick_2">
     <g id="line2d_2">
      <g>
       <use xlink:href="#mc516bf8693" x="126.435077" y="354.958125" style="stroke: #000000; stroke-width: 0.8"/>
      </g>
     </g>
     <g id="text_2">
      <!-- 20 -->
      <g transform="translate(120.072577 369.556562) scale(0.1 -0.1)">
       <defs>
        <path id="DejaVuSans-32" d="M 1228 531 
L 3431 531 
L 3431 0 
L 469 0 
L 469 531 
Q 828 903 1448 1529 
Q 2069 2156 2228 2338 
Q 2531 2678 2651 2914 
Q 2772 3150 2772 3378 
Q 2772 3750 2511 3984 
Q 2250 4219 1831 4219 
Q 1534 4219 1204 4116 
Q 875 4013 500 3803 
L 500 4441 
Q 881 4594 1212 4672 
Q 1544 4750 1819 4750 
Q 2544 4750 2975 4387 
Q 3406 4025 3406 3419 
Q 3406 3131 3298 2873 
Q 3191 2616 2906 2266 
Q 2828 2175 2409 1742 
Q 1991 1309 1228 531 
z
" transform="scale(0.015625)"/>
       </defs>
       <use xlink:href="#DejaVuSans-32"/>
       <use xlink:href="#DejaVuSans-30" x="63.623047"/>
      </g>
     </g>
    </g>
    <g id="xtick_3">
     <g id="line2d_3">
      <g>
       <use xlink:href="#mc516bf8693" x="196.060745" y="354.958125" style="stroke: #000000; stroke-width: 0.8"/>
      </g>
     </g>
     <g id="text_3">
      <!-- 40 -->
      <g transform="translate(189.698245 369.556562) scale(0.1 -0.1)">
       <defs>
        <path id="DejaVuSans-34" d="M 2419 4116 
L 825 1625 
L 2419 1625 
L 2419 4116 
z
M 2253 4666 
L 3047 4666 
L 3047 1625 
L 3713 1625 
L 3713 1100 
L 3047 1100 
L 3047 0 
L 2419 0 
L 2419 1100 
L 313 1100 
L 313 1709 
L 2253 4666 
z
" transform="scale(0.015625)"/>
       </defs>
       <use xlink:href="#DejaVuSans-34"/>
       <use xlink:href="#DejaVuSans-30" x="63.623047"/>
      </g>
     </g>
    </g>
    <g id="xtick_4">
     <g id="line2d_4">
      <g>
       <use xlink:href="#mc516bf8693" x="265.686414" y="354.958125" style="stroke: #000000; stroke-width: 0.8"/>
      </g>
     </g>
     <g id="text_4">
      <!-- 60 -->
      <g transform="translate(259.323914 369.556562) scale(0.1 -0.1)">
       <defs>
        <path id="DejaVuSans-36" d="M 2113 2584 
Q 1688 2584 1439 2293 
Q 1191 2003 1191 1497 
Q 1191 994 1439 701 
Q 1688 409 2113 409 
Q 2538 409 2786 701 
Q 3034 994 3034 1497 
Q 3034 2003 2786 2293 
Q 2538 2584 2113 2584 
z
M 3366 4563 
L 3366 3988 
Q 3128 4100 2886 4159 
Q 2644 4219 2406 4219 
Q 1781 4219 1451 3797 
Q 1122 3375 1075 2522 
Q 1259 2794 1537 2939 
Q 1816 3084 2150 3084 
Q 2853 3084 3261 2657 
Q 3669 2231 3669 1497 
Q 3669 778 3244 343 
Q 2819 -91 2113 -91 
Q 1303 -91 875 529 
Q 447 1150 447 2328 
Q 447 3434 972 4092 
Q 1497 4750 2381 4750 
Q 2619 4750 2861 4703 
Q 3103 4656 3366 4563 
z
" transform="scale(0.015625)"/>
       </defs>
       <use xlink:href="#DejaVuSans-36"/>
       <use xlink:href="#DejaVuSans-30" x="63.623047"/>
      </g>
     </g>
    </g>
    <g id="xtick_5">
     <g id="line2d_5">
      <g>
       <use xlink:href="#mc516bf8693" x="335.312082" y="354.958125" style="stroke: #000000; stroke-width: 0.8"/>
      </g>
     </g>
     <g id="text_5">
      <!-- 80 -->
      <g transform="translate(328.949582 369.556562) scale(0.1 -0.1)">
       <defs>
        <path id="DejaVuSans-38" d="M 2034 2216 
Q 1584 2216 1326 1975 
Q 1069 1734 1069 1313 
Q 1069 891 1326 650 
Q 1584 409 2034 409 
Q 2484 409 2743 651 
Q 3003 894 3003 1313 
Q 3003 1734 2745 1975 
Q 2488 2216 2034 2216 
z
M 1403 2484 
Q 997 2584 770 2862 
Q 544 3141 544 3541 
Q 544 4100 942 4425 
Q 1341 4750 2034 4750 
Q 2731 4750 3128 4425 
Q 3525 4100 3525 3541 
Q 3525 3141 3298 2862 
Q 3072 2584 2669 2484 
Q 3125 2378 3379 2068 
Q 3634 1759 3634 1313 
Q 3634 634 3220 271 
Q 2806 -91 2034 -91 
Q 1263 -91 848 271 
Q 434 634 434 1313 
Q 434 1759 690 2068 
Q 947 2378 1403 2484 
z
M 1172 3481 
Q 1172 3119 1398 2916 
Q 1625 2713 2034 2713 
Q 2441 2713 2670 2916 
Q 2900 3119 2900 3481 
Q 2900 3844 2670 4047 
Q 2441 4250 2034 4250 
Q 1625 4250 1398 4047 
Q 1172 3844 1172 3481 
z
" transform="scale(0.015625)"/>
       </defs>
       <use xlink:href="#DejaVuSans-38"/>
       <use xlink:href="#DejaVuSans-30" x="63.623047"/>
      </g>
     </g>
    </g>
    <g id="xtick_6">
     <g id="line2d_6">
      <g>
       <use xlink:href="#mc516bf8693" x="404.937751" y="354.958125" style="stroke: #000000; stroke-width: 0.8"/>
      </g>
     </g>
     <g id="text_6">
      <!-- 100 -->
      <g transform="translate(395.394001 369.556562) scale(0.1 -0.1)">
       <defs>
        <path id="DejaVuSans-31" d="M 794 531 
L 1825 531 
L 1825 4091 
L 703 3866 
L 703 4441 
L 1819 4666 
L 2450 4666 
L 2450 531 
L 3481 531 
L 3481 0 
L 794 0 
L 794 531 
z
" transform="scale(0.015625)"/>
       </defs>
       <use xlink:href="#DejaVuSans-31"/>
       <use xlink:href="#DejaVuSans-30" x="63.623047"/>
       <use xlink:href="#DejaVuSans-30" x="127.246094"/>
      </g>
     </g>
    </g>
    <g id="text_7">
     <!-- Predicted Intelligibility [%] -->
     <g transform="translate(154.666548 383.234687) scale(0.1 -0.1)">
      <defs>
       <path id="DejaVuSans-Bold-50" d="M 588 4666 
L 2584 4666 
Q 3475 4666 3951 4270 
Q 4428 3875 4428 3144 
Q 4428 2409 3951 2014 
Q 3475 1619 2584 1619 
L 1791 1619 
L 1791 0 
L 588 0 
L 588 4666 
z
M 1791 3794 
L 1791 2491 
L 2456 2491 
Q 2806 2491 2997 2661 
Q 3188 2831 3188 3144 
Q 3188 3456 2997 3625 
Q 2806 3794 2456 3794 
L 1791 3794 
z
" transform="scale(0.015625)"/>
       <path id="DejaVuSans-Bold-72" d="M 3138 2547 
Q 2991 2616 2845 2648 
Q 2700 2681 2553 2681 
Q 2122 2681 1889 2404 
Q 1656 2128 1656 1613 
L 1656 0 
L 538 0 
L 538 3500 
L 1656 3500 
L 1656 2925 
Q 1872 3269 2151 3426 
Q 2431 3584 2822 3584 
Q 2878 3584 2943 3579 
Q 3009 3575 3134 3559 
L 3138 2547 
z
" transform="scale(0.015625)"/>
       <path id="DejaVuSans-Bold-65" d="M 4031 1759 
L 4031 1441 
L 1416 1441 
Q 1456 1047 1700 850 
Q 1944 653 2381 653 
Q 2734 653 3104 758 
Q 3475 863 3866 1075 
L 3866 213 
Q 3469 63 3072 -14 
Q 2675 -91 2278 -91 
Q 1328 -91 801 392 
Q 275 875 275 1747 
Q 275 2603 792 3093 
Q 1309 3584 2216 3584 
Q 3041 3584 3536 3087 
Q 4031 2591 4031 1759 
z
M 2881 2131 
Q 2881 2450 2695 2645 
Q 2509 2841 2209 2841 
Q 1884 2841 1681 2658 
Q 1478 2475 1428 2131 
L 2881 2131 
z
" transform="scale(0.015625)"/>
       <path id="DejaVuSans-Bold-64" d="M 2919 2988 
L 2919 4863 
L 4044 4863 
L 4044 0 
L 2919 0 
L 2919 506 
Q 2688 197 2409 53 
Q 2131 -91 1766 -91 
Q 1119 -91 703 423 
Q 288 938 288 1747 
Q 288 2556 703 3070 
Q 1119 3584 1766 3584 
Q 2128 3584 2408 3439 
Q 2688 3294 2919 2988 
z
M 2181 722 
Q 2541 722 2730 984 
Q 2919 1247 2919 1747 
Q 2919 2247 2730 2509 
Q 2541 2772 2181 2772 
Q 1825 2772 1636 2509 
Q 1447 2247 1447 1747 
Q 1447 1247 1636 984 
Q 1825 722 2181 722 
z
" transform="scale(0.015625)"/>
       <path id="DejaVuSans-Bold-69" d="M 538 3500 
L 1656 3500 
L 1656 0 
L 538 0 
L 538 3500 
z
M 538 4863 
L 1656 4863 
L 1656 3950 
L 538 3950 
L 538 4863 
z
" transform="scale(0.015625)"/>
       <path id="DejaVuSans-Bold-63" d="M 3366 3391 
L 3366 2478 
Q 3138 2634 2908 2709 
Q 2678 2784 2431 2784 
Q 1963 2784 1702 2511 
Q 1441 2238 1441 1747 
Q 1441 1256 1702 982 
Q 1963 709 2431 709 
Q 2694 709 2930 787 
Q 3166 866 3366 1019 
L 3366 103 
Q 3103 6 2833 -42 
Q 2563 -91 2291 -91 
Q 1344 -91 809 395 
Q 275 881 275 1747 
Q 275 2613 809 3098 
Q 1344 3584 2291 3584 
Q 2566 3584 2833 3536 
Q 3100 3488 3366 3391 
z
" transform="scale(0.015625)"/>
       <path id="DejaVuSans-Bold-74" d="M 1759 4494 
L 1759 3500 
L 2913 3500 
L 2913 2700 
L 1759 2700 
L 1759 1216 
Q 1759 972 1856 886 
Q 1953 800 2241 800 
L 2816 800 
L 2816 0 
L 1856 0 
Q 1194 0 917 276 
Q 641 553 641 1216 
L 641 2700 
L 84 2700 
L 84 3500 
L 641 3500 
L 641 4494 
L 1759 4494 
z
" transform="scale(0.015625)"/>
       <path id="DejaVuSans-Bold-20" transform="scale(0.015625)"/>
       <path id="DejaVuSans-Bold-49" d="M 588 4666 
L 1791 4666 
L 1791 0 
L 588 0 
L 588 4666 
z
" transform="scale(0.015625)"/>
       <path id="DejaVuSans-Bold-6e" d="M 4056 2131 
L 4056 0 
L 2931 0 
L 2931 347 
L 2931 1631 
Q 2931 2084 2911 2256 
Q 2891 2428 2841 2509 
Q 2775 2619 2662 2680 
Q 2550 2741 2406 2741 
Q 2056 2741 1856 2470 
Q 1656 2200 1656 1722 
L 1656 0 
L 538 0 
L 538 3500 
L 1656 3500 
L 1656 2988 
Q 1909 3294 2193 3439 
Q 2478 3584 2822 3584 
Q 3428 3584 3742 3212 
Q 4056 2841 4056 2131 
z
" transform="scale(0.015625)"/>
       <path id="DejaVuSans-Bold-6c" d="M 538 4863 
L 1656 4863 
L 1656 0 
L 538 0 
L 538 4863 
z
" transform="scale(0.015625)"/>
       <path id="DejaVuSans-Bold-67" d="M 2919 594 
Q 2688 288 2409 144 
Q 2131 0 1766 0 
Q 1125 0 706 504 
Q 288 1009 288 1791 
Q 288 2575 706 3076 
Q 1125 3578 1766 3578 
Q 2131 3578 2409 3434 
Q 2688 3291 2919 2981 
L 2919 3500 
L 4044 3500 
L 4044 353 
Q 4044 -491 3511 -936 
Q 2978 -1381 1966 -1381 
Q 1638 -1381 1331 -1331 
Q 1025 -1281 716 -1178 
L 716 -306 
Q 1009 -475 1290 -558 
Q 1572 -641 1856 -641 
Q 2406 -641 2662 -400 
Q 2919 -159 2919 353 
L 2919 594 
z
M 2181 2772 
Q 1834 2772 1640 2515 
Q 1447 2259 1447 1791 
Q 1447 1309 1634 1061 
Q 1822 813 2181 813 
Q 2531 813 2725 1069 
Q 2919 1325 2919 1791 
Q 2919 2259 2725 2515 
Q 2531 2772 2181 2772 
z
" transform="scale(0.015625)"/>
       <path id="DejaVuSans-Bold-62" d="M 2400 722 
Q 2759 722 2948 984 
Q 3138 1247 3138 1747 
Q 3138 2247 2948 2509 
Q 2759 2772 2400 2772 
Q 2041 2772 1848 2508 
Q 1656 2244 1656 1747 
Q 1656 1250 1848 986 
Q 2041 722 2400 722 
z
M 1656 2988 
Q 1888 3294 2169 3439 
Q 2450 3584 2816 3584 
Q 3463 3584 3878 3070 
Q 4294 2556 4294 1747 
Q 4294 938 3878 423 
Q 3463 -91 2816 -91 
Q 2450 -91 2169 54 
Q 1888 200 1656 506 
L 1656 0 
L 538 0 
L 538 4863 
L 1656 4863 
L 1656 2988 
z
" transform="scale(0.015625)"/>
       <path id="DejaVuSans-Bold-79" d="M 78 3500 
L 1197 3500 
L 2138 1125 
L 2938 3500 
L 4056 3500 
L 2584 -331 
Q 2363 -916 2067 -1148 
Q 1772 -1381 1288 -1381 
L 641 -1381 
L 641 -647 
L 991 -647 
Q 1275 -647 1404 -556 
Q 1534 -466 1606 -231 
L 1638 -134 
L 78 3500 
z
" transform="scale(0.015625)"/>
       <path id="DejaVuSans-Bold-5b" d="M 550 4863 
L 2491 4863 
L 2491 4159 
L 1613 4159 
L 1613 -141 
L 2491 -141 
L 2491 -844 
L 550 -844 
L 550 4863 
z
" transform="scale(0.015625)"/>
       <path id="DejaVuSans-Bold-25" d="M 4959 1925 
Q 4738 1925 4616 1733 
Q 4494 1541 4494 1184 
Q 4494 825 4614 633 
Q 4734 441 4959 441 
Q 5184 441 5303 633 
Q 5422 825 5422 1184 
Q 5422 1541 5301 1733 
Q 5181 1925 4959 1925 
z
M 4959 2450 
Q 5541 2450 5875 2112 
Q 6209 1775 6209 1184 
Q 6209 594 5875 251 
Q 5541 -91 4959 -91 
Q 4378 -91 4042 251 
Q 3706 594 3706 1184 
Q 3706 1772 4042 2111 
Q 4378 2450 4959 2450 
z
M 2094 -91 
L 1403 -91 
L 4319 4750 
L 5013 4750 
L 2094 -91 
z
M 1453 4750 
Q 2034 4750 2367 4411 
Q 2700 4072 2700 3481 
Q 2700 2891 2367 2550 
Q 2034 2209 1453 2209 
Q 872 2209 539 2550 
Q 206 2891 206 3481 
Q 206 4072 539 4411 
Q 872 4750 1453 4750 
z
M 1453 4225 
Q 1228 4225 1106 4031 
Q 984 3838 984 3481 
Q 984 3122 1106 2926 
Q 1228 2731 1453 2731 
Q 1678 2731 1798 2926 
Q 1919 3122 1919 3481 
Q 1919 3838 1797 4031 
Q 1675 4225 1453 4225 
z
" transform="scale(0.015625)"/>
       <path id="DejaVuSans-Bold-5d" d="M 2375 -844 
L 434 -844 
L 434 -141 
L 1313 -141 
L 1313 4159 
L 434 4159 
L 434 4863 
L 2375 4863 
L 2375 -844 
z
" transform="scale(0.015625)"/>
      </defs>
      <use xlink:href="#DejaVuSans-Bold-50"/>
      <use xlink:href="#DejaVuSans-Bold-72" x="73.291016"/>
      <use xlink:href="#DejaVuSans-Bold-65" x="122.607422"/>
      <use xlink:href="#DejaVuSans-Bold-64" x="190.429688"/>
      <use xlink:href="#DejaVuSans-Bold-69" x="262.011719"/>
      <use xlink:href="#DejaVuSans-Bold-63" x="296.289062"/>
      <use xlink:href="#DejaVuSans-Bold-74" x="355.566406"/>
      <use xlink:href="#DejaVuSans-Bold-65" x="403.369141"/>
      <use xlink:href="#DejaVuSans-Bold-64" x="471.191406"/>
      <use xlink:href="#DejaVuSans-Bold-20" x="542.773438"/>
      <use xlink:href="#DejaVuSans-Bold-49" x="577.587891"/>
      <use xlink:href="#DejaVuSans-Bold-6e" x="614.794922"/>
      <use xlink:href="#DejaVuSans-Bold-74" x="685.986328"/>
      <use xlink:href="#DejaVuSans-Bold-65" x="733.789062"/>
      <use xlink:href="#DejaVuSans-Bold-6c" x="801.611328"/>
      <use xlink:href="#DejaVuSans-Bold-6c" x="835.888672"/>
      <use xlink:href="#DejaVuSans-Bold-69" x="870.166016"/>
      <use xlink:href="#DejaVuSans-Bold-67" x="904.443359"/>
      <use xlink:href="#DejaVuSans-Bold-69" x="976.025391"/>
      <use xlink:href="#DejaVuSans-Bold-62" x="1010.302734"/>
      <use xlink:href="#DejaVuSans-Bold-69" x="1081.884766"/>
      <use xlink:href="#DejaVuSans-Bold-6c" x="1116.162109"/>
      <use xlink:href="#DejaVuSans-Bold-69" x="1150.439453"/>
      <use xlink:href="#DejaVuSans-Bold-74" x="1184.716797"/>
      <use xlink:href="#DejaVuSans-Bold-79" x="1232.519531"/>
      <use xlink:href="#DejaVuSans-Bold-20" x="1297.705078"/>
      <use xlink:href="#DejaVuSans-Bold-5b" x="1332.519531"/>
      <use xlink:href="#DejaVuSans-Bold-25" x="1378.222656"/>
      <use xlink:href="#DejaVuSans-Bold-5d" x="1478.417969"/>
     </g>
    </g>
   </g>
   <g id="matplotlib.axis_2">
    <g id="ytick_1">
     <g id="line2d_7">
      <defs>
       <path id="me2afe58298" d="M 0 0 
L -3.5 0 
" style="stroke: #000000; stroke-width: 0.8"/>
      </defs>
      <g>
       <use xlink:href="#me2afe58298" x="53.328125" y="354.958125" style="stroke: #000000; stroke-width: 0.8"/>
      </g>
     </g>
     <g id="text_8">
      <!-- 0 -->
      <g transform="translate(39.965625 358.757344) scale(0.1 -0.1)">
       <use xlink:href="#DejaVuSans-30"/>
      </g>
     </g>
    </g>
    <g id="ytick_2">
     <g id="line2d_8">
      <g>
       <use xlink:href="#me2afe58298" x="53.328125" y="297.705113" style="stroke: #000000; stroke-width: 0.8"/>
      </g>
     </g>
     <g id="text_9">
      <!-- 200 -->
      <g transform="translate(27.240625 301.504332) scale(0.1 -0.1)">
       <use xlink:href="#DejaVuSans-32"/>
       <use xlink:href="#DejaVuSans-30" x="63.623047"/>
       <use xlink:href="#DejaVuSans-30" x="127.246094"/>
      </g>
     </g>
    </g>
    <g id="ytick_3">
     <g id="line2d_9">
      <g>
       <use xlink:href="#me2afe58298" x="53.328125" y="240.452101" style="stroke: #000000; stroke-width: 0.8"/>
      </g>
     </g>
     <g id="text_10">
      <!-- 400 -->
      <g transform="translate(27.240625 244.25132) scale(0.1 -0.1)">
       <use xlink:href="#DejaVuSans-34"/>
       <use xlink:href="#DejaVuSans-30" x="63.623047"/>
       <use xlink:href="#DejaVuSans-30" x="127.246094"/>
      </g>
     </g>
    </g>
    <g id="ytick_4">
     <g id="line2d_10">
      <g>
       <use xlink:href="#me2afe58298" x="53.328125" y="183.199089" style="stroke: #000000; stroke-width: 0.8"/>
      </g>
     </g>
     <g id="text_11">
      <!-- 600 -->
      <g transform="translate(27.240625 186.998308) scale(0.1 -0.1)">
       <use xlink:href="#DejaVuSans-36"/>
       <use xlink:href="#DejaVuSans-30" x="63.623047"/>
       <use xlink:href="#DejaVuSans-30" x="127.246094"/>
      </g>
     </g>
    </g>
    <g id="ytick_5">
     <g id="line2d_11">
      <g>
       <use xlink:href="#me2afe58298" x="53.328125" y="125.946077" style="stroke: #000000; stroke-width: 0.8"/>
      </g>
     </g>
     <g id="text_12">
      <!-- 800 -->
      <g transform="translate(27.240625 129.745296) scale(0.1 -0.1)">
       <use xlink:href="#DejaVuSans-38"/>
       <use xlink:href="#DejaVuSans-30" x="63.623047"/>
       <use xlink:href="#DejaVuSans-30" x="127.246094"/>
      </g>
     </g>
    </g>
    <g id="ytick_6">
     <g id="line2d_12">
      <g>
       <use xlink:href="#me2afe58298" x="53.328125" y="68.693065" style="stroke: #000000; stroke-width: 0.8"/>
      </g>
     </g>
     <g id="text_13">
      <!-- 1000 -->
      <g transform="translate(20.878125 72.492284) scale(0.1 -0.1)">
       <use xlink:href="#DejaVuSans-31"/>
       <use xlink:href="#DejaVuSans-30" x="63.623047"/>
       <use xlink:href="#DejaVuSans-30" x="127.246094"/>
       <use xlink:href="#DejaVuSans-30" x="190.869141"/>
      </g>
     </g>
    </g>
    <g id="text_14">
     <!-- Number of Occurrences -->
     <g transform="translate(14.798438 255.070937) rotate(-90) scale(0.1 -0.1)">
      <defs>
       <path id="DejaVuSans-Bold-4e" d="M 588 4666 
L 1931 4666 
L 3628 1466 
L 3628 4666 
L 4769 4666 
L 4769 0 
L 3425 0 
L 1728 3200 
L 1728 0 
L 588 0 
L 588 4666 
z
" transform="scale(0.015625)"/>
       <path id="DejaVuSans-Bold-75" d="M 500 1363 
L 500 3500 
L 1625 3500 
L 1625 3150 
Q 1625 2866 1622 2436 
Q 1619 2006 1619 1863 
Q 1619 1441 1641 1255 
Q 1663 1069 1716 984 
Q 1784 875 1895 815 
Q 2006 756 2150 756 
Q 2500 756 2700 1025 
Q 2900 1294 2900 1772 
L 2900 3500 
L 4019 3500 
L 4019 0 
L 2900 0 
L 2900 506 
Q 2647 200 2364 54 
Q 2081 -91 1741 -91 
Q 1134 -91 817 281 
Q 500 653 500 1363 
z
" transform="scale(0.015625)"/>
       <path id="DejaVuSans-Bold-6d" d="M 3781 2919 
Q 3994 3244 4286 3414 
Q 4578 3584 4928 3584 
Q 5531 3584 5847 3212 
Q 6163 2841 6163 2131 
L 6163 0 
L 5038 0 
L 5038 1825 
Q 5041 1866 5042 1909 
Q 5044 1953 5044 2034 
Q 5044 2406 4934 2573 
Q 4825 2741 4581 2741 
Q 4263 2741 4089 2478 
Q 3916 2216 3909 1719 
L 3909 0 
L 2784 0 
L 2784 1825 
Q 2784 2406 2684 2573 
Q 2584 2741 2328 2741 
Q 2006 2741 1831 2477 
Q 1656 2213 1656 1722 
L 1656 0 
L 531 0 
L 531 3500 
L 1656 3500 
L 1656 2988 
Q 1863 3284 2130 3434 
Q 2397 3584 2719 3584 
Q 3081 3584 3359 3409 
Q 3638 3234 3781 2919 
z
" transform="scale(0.015625)"/>
       <path id="DejaVuSans-Bold-6f" d="M 2203 2784 
Q 1831 2784 1636 2517 
Q 1441 2250 1441 1747 
Q 1441 1244 1636 976 
Q 1831 709 2203 709 
Q 2569 709 2762 976 
Q 2956 1244 2956 1747 
Q 2956 2250 2762 2517 
Q 2569 2784 2203 2784 
z
M 2203 3584 
Q 3106 3584 3614 3096 
Q 4122 2609 4122 1747 
Q 4122 884 3614 396 
Q 3106 -91 2203 -91 
Q 1297 -91 786 396 
Q 275 884 275 1747 
Q 275 2609 786 3096 
Q 1297 3584 2203 3584 
z
" transform="scale(0.015625)"/>
       <path id="DejaVuSans-Bold-66" d="M 2841 4863 
L 2841 4128 
L 2222 4128 
Q 1984 4128 1890 4042 
Q 1797 3956 1797 3744 
L 1797 3500 
L 2753 3500 
L 2753 2700 
L 1797 2700 
L 1797 0 
L 678 0 
L 678 2700 
L 122 2700 
L 122 3500 
L 678 3500 
L 678 3744 
Q 678 4316 997 4589 
Q 1316 4863 1984 4863 
L 2841 4863 
z
" transform="scale(0.015625)"/>
       <path id="DejaVuSans-Bold-4f" d="M 2719 3878 
Q 2169 3878 1866 3472 
Q 1563 3066 1563 2328 
Q 1563 1594 1866 1187 
Q 2169 781 2719 781 
Q 3272 781 3575 1187 
Q 3878 1594 3878 2328 
Q 3878 3066 3575 3472 
Q 3272 3878 2719 3878 
z
M 2719 4750 
Q 3844 4750 4481 4106 
Q 5119 3463 5119 2328 
Q 5119 1197 4481 553 
Q 3844 -91 2719 -91 
Q 1597 -91 958 553 
Q 319 1197 319 2328 
Q 319 3463 958 4106 
Q 1597 4750 2719 4750 
z
" transform="scale(0.015625)"/>
       <path id="DejaVuSans-Bold-73" d="M 3272 3391 
L 3272 2541 
Q 2913 2691 2578 2766 
Q 2244 2841 1947 2841 
Q 1628 2841 1473 2761 
Q 1319 2681 1319 2516 
Q 1319 2381 1436 2309 
Q 1553 2238 1856 2203 
L 2053 2175 
Q 2913 2066 3209 1816 
Q 3506 1566 3506 1031 
Q 3506 472 3093 190 
Q 2681 -91 1863 -91 
Q 1516 -91 1145 -36 
Q 775 19 384 128 
L 384 978 
Q 719 816 1070 734 
Q 1422 653 1784 653 
Q 2113 653 2278 743 
Q 2444 834 2444 1013 
Q 2444 1163 2330 1236 
Q 2216 1309 1875 1350 
L 1678 1375 
Q 931 1469 631 1722 
Q 331 1975 331 2491 
Q 331 3047 712 3315 
Q 1094 3584 1881 3584 
Q 2191 3584 2531 3537 
Q 2872 3491 3272 3391 
z
" transform="scale(0.015625)"/>
      </defs>
      <use xlink:href="#DejaVuSans-Bold-4e"/>
      <use xlink:href="#DejaVuSans-Bold-75" x="83.691406"/>
      <use xlink:href="#DejaVuSans-Bold-6d" x="154.882812"/>
      <use xlink:href="#DejaVuSans-Bold-62" x="259.082031"/>
      <use xlink:href="#DejaVuSans-Bold-65" x="330.664062"/>
      <use xlink:href="#DejaVuSans-Bold-72" x="398.486328"/>
      <use xlink:href="#DejaVuSans-Bold-20" x="447.802734"/>
      <use xlink:href="#DejaVuSans-Bold-6f" x="482.617188"/>
      <use xlink:href="#DejaVuSans-Bold-66" x="551.318359"/>
      <use xlink:href="#DejaVuSans-Bold-20" x="594.824219"/>
      <use xlink:href="#DejaVuSans-Bold-4f" x="629.638672"/>
      <use xlink:href="#DejaVuSans-Bold-63" x="714.648438"/>
      <use xlink:href="#DejaVuSans-Bold-63" x="773.925781"/>
      <use xlink:href="#DejaVuSans-Bold-75" x="833.203125"/>
      <use xlink:href="#DejaVuSans-Bold-72" x="904.394531"/>
      <use xlink:href="#DejaVuSans-Bold-72" x="953.710938"/>
      <use xlink:href="#DejaVuSans-Bold-65" x="1003.027344"/>
      <use xlink:href="#DejaVuSans-Bold-6e" x="1070.849609"/>
      <use xlink:href="#DejaVuSans-Bold-63" x="1142.041016"/>
      <use xlink:href="#DejaVuSans-Bold-65" x="1201.318359"/>
      <use xlink:href="#DejaVuSans-Bold-73" x="1269.140625"/>
     </g>
    </g>
   </g>
   <g id="patch_33">
    <path d="M 53.328125 354.958125 
L 53.328125 22.318125 
" style="fill: none; stroke: #000000; stroke-width: 0.8; stroke-linejoin: miter; stroke-linecap: square"/>
   </g>
   <g id="patch_34">
    <path d="M 408.419034 354.958125 
L 408.419034 22.318125 
" style="fill: none; stroke: #000000; stroke-width: 0.8; stroke-linejoin: miter; stroke-linecap: square"/>
   </g>
   <g id="patch_35">
    <path d="M 53.328125 354.958125 
L 408.419034 354.958125 
" style="fill: none; stroke: #000000; stroke-width: 0.8; stroke-linejoin: miter; stroke-linecap: square"/>
   </g>
   <g id="patch_36">
    <path d="M 53.328125 22.318125 
L 408.419034 22.318125 
" style="fill: none; stroke: #000000; stroke-width: 0.8; stroke-linejoin: miter; stroke-linecap: square"/>
   </g>
   <g id="text_15">
    <!-- Distribution of Predicted Intelligibility -->
    <g transform="translate(101.724517 16.318125) scale(0.12 -0.12)">
     <defs>
      <path id="DejaVuSans-Bold-44" d="M 1791 3756 
L 1791 909 
L 2222 909 
Q 2959 909 3348 1275 
Q 3738 1641 3738 2338 
Q 3738 3031 3350 3393 
Q 2963 3756 2222 3756 
L 1791 3756 
z
M 588 4666 
L 1856 4666 
Q 2919 4666 3439 4514 
Q 3959 4363 4331 4000 
Q 4659 3684 4818 3271 
Q 4978 2859 4978 2338 
Q 4978 1809 4818 1395 
Q 4659 981 4331 666 
Q 3956 303 3431 151 
Q 2906 0 1856 0 
L 588 0 
L 588 4666 
z
" transform="scale(0.015625)"/>
     </defs>
     <use xlink:href="#DejaVuSans-Bold-44"/>
     <use xlink:href="#DejaVuSans-Bold-69" x="83.007812"/>
     <use xlink:href="#DejaVuSans-Bold-73" x="117.285156"/>
     <use xlink:href="#DejaVuSans-Bold-74" x="176.806641"/>
     <use xlink:href="#DejaVuSans-Bold-72" x="224.609375"/>
     <use xlink:href="#DejaVuSans-Bold-69" x="273.925781"/>
     <use xlink:href="#DejaVuSans-Bold-62" x="308.203125"/>
     <use xlink:href="#DejaVuSans-Bold-75" x="379.785156"/>
     <use xlink:href="#DejaVuSans-Bold-74" x="450.976562"/>
     <use xlink:href="#DejaVuSans-Bold-69" x="498.779297"/>
     <use xlink:href="#DejaVuSans-Bold-6f" x="533.056641"/>
     <use xlink:href="#DejaVuSans-Bold-6e" x="601.757812"/>
     <use xlink:href="#DejaVuSans-Bold-20" x="672.949219"/>
     <use xlink:href="#DejaVuSans-Bold-6f" x="707.763672"/>
     <use xlink:href="#DejaVuSans-Bold-66" x="776.464844"/>
     <use xlink:href="#DejaVuSans-Bold-20" x="819.970703"/>
     <use xlink:href="#DejaVuSans-Bold-50" x="854.785156"/>
     <use xlink:href="#DejaVuSans-Bold-72" x="928.076172"/>
     <use xlink:href="#DejaVuSans-Bold-65" x="977.392578"/>
     <use xlink:href="#DejaVuSans-Bold-64" x="1045.214844"/>
     <use xlink:href="#DejaVuSans-Bold-69" x="1116.796875"/>
     <use xlink:href="#DejaVuSans-Bold-63" x="1151.074219"/>
     <use xlink:href="#DejaVuSans-Bold-74" x="1210.351562"/>
     <use xlink:href="#DejaVuSans-Bold-65" x="1258.154297"/>
     <use xlink:href="#DejaVuSans-Bold-64" x="1325.976562"/>
     <use xlink:href="#DejaVuSans-Bold-20" x="1397.558594"/>
     <use xlink:href="#DejaVuSans-Bold-49" x="1432.373047"/>
     <use xlink:href="#DejaVuSans-Bold-6e" x="1469.580078"/>
     <use xlink:href="#DejaVuSans-Bold-74" x="1540.771484"/>
     <use xlink:href="#DejaVuSans-Bold-65" x="1588.574219"/>
     <use xlink:href="#DejaVuSans-Bold-6c" x="1656.396484"/>
     <use xlink:href="#DejaVuSans-Bold-6c" x="1690.673828"/>
     <use xlink:href="#DejaVuSans-Bold-69" x="1724.951172"/>
     <use xlink:href="#DejaVuSans-Bold-67" x="1759.228516"/>
     <use xlink:href="#DejaVuSans-Bold-69" x="1830.810547"/>
     <use xlink:href="#DejaVuSans-Bold-62" x="1865.087891"/>
     <use xlink:href="#DejaVuSans-Bold-69" x="1936.669922"/>
     <use xlink:href="#DejaVuSans-Bold-6c" x="1970.947266"/>
     <use xlink:href="#DejaVuSans-Bold-69" x="2005.224609"/>
     <use xlink:href="#DejaVuSans-Bold-74" x="2039.501953"/>
     <use xlink:href="#DejaVuSans-Bold-79" x="2087.304688"/>
    </g>
   </g>
  </g>
  <g id="axes_2">
   <g id="patch_37">
    <path d="M 479.437216 354.958125 
L 834.528125 354.958125 
L 834.528125 22.318125 
L 479.437216 22.318125 
z
" style="fill: #ffffff"/>
   </g>
   <g id="patch_38">
    <path d="M 482.918499 354.958125 
L 494.522777 354.958125 
L 494.522777 271.368727 
L 482.918499 271.368727 
z
" clip-path="url(#pb833e4fe53)" style="fill: #3b528b; stroke: #000000; stroke-linejoin: miter"/>
   </g>
   <g id="patch_39">
    <path d="M 494.522777 354.958125 
L 506.127055 354.958125 
L 506.127055 354.958125 
L 494.522777 354.958125 
z
" clip-path="url(#pb833e4fe53)" style="fill: #440154; stroke: #000000; stroke-linejoin: miter"/>
   </g>
   <g id="patch_40">
    <path d="M 506.127055 354.958125 
L 517.731334 354.958125 
L 517.731334 354.958125 
L 506.127055 354.958125 
z
" clip-path="url(#pb833e4fe53)" style="fill: #440154; stroke: #000000; stroke-linejoin: miter"/>
   </g>
   <g id="patch_41">
    <path d="M 517.731334 354.958125 
L 529.335612 354.958125 
L 529.335612 336.923426 
L 517.731334 336.923426 
z
" clip-path="url(#pb833e4fe53)" style="fill: #481668; stroke: #000000; stroke-linejoin: miter"/>
   </g>
   <g id="patch_42">
    <path d="M 529.335612 354.958125 
L 540.93989 354.958125 
L 540.93989 346.942703 
L 529.335612 346.942703 
z
" clip-path="url(#pb833e4fe53)" style="fill: #460a5d; stroke: #000000; stroke-linejoin: miter"/>
   </g>
   <g id="patch_43">
    <path d="M 540.93989 354.958125 
L 552.544168 354.958125 
L 552.544168 354.958125 
L 540.93989 354.958125 
z
" clip-path="url(#pb833e4fe53)" style="fill: #440154; stroke: #000000; stroke-linejoin: miter"/>
   </g>
   <g id="patch_44">
    <path d="M 552.544168 354.958125 
L 564.148446 354.958125 
L 564.148446 344.938848 
L 552.544168 344.938848 
z
" clip-path="url(#pb833e4fe53)" style="fill: #460b5e; stroke: #000000; stroke-linejoin: miter"/>
   </g>
   <g id="patch_45">
    <path d="M 564.148446 354.958125 
L 575.752724 354.958125 
L 575.752724 344.652583 
L 564.148446 344.652583 
z
" clip-path="url(#pb833e4fe53)" style="fill: #470d60; stroke: #000000; stroke-linejoin: miter"/>
   </g>
   <g id="patch_46">
    <path d="M 575.752724 354.958125 
L 587.357002 354.958125 
L 587.357002 346.656438 
L 575.752724 346.656438 
z
" clip-path="url(#pb833e4fe53)" style="fill: #460a5d; stroke: #000000; stroke-linejoin: miter"/>
   </g>
   <g id="patch_47">
    <path d="M 587.357002 354.958125 
L 598.96128 354.958125 
L 598.96128 347.228968 
L 587.357002 347.228968 
z
" clip-path="url(#pb833e4fe53)" style="fill: #460a5d; stroke: #000000; stroke-linejoin: miter"/>
   </g>
   <g id="patch_48">
    <path d="M 598.96128 354.958125 
L 610.565558 354.958125 
L 610.565558 354.958125 
L 598.96128 354.958125 
z
" clip-path="url(#pb833e4fe53)" style="fill: #440154; stroke: #000000; stroke-linejoin: miter"/>
   </g>
   <g id="patch_49">
    <path d="M 610.565558 354.958125 
L 622.169836 354.958125 
L 622.169836 349.232824 
L 610.565558 349.232824 
z
" clip-path="url(#pb833e4fe53)" style="fill: #46075a; stroke: #000000; stroke-linejoin: miter"/>
   </g>
   <g id="patch_50">
    <path d="M 622.169836 354.958125 
L 633.774114 354.958125 
L 633.774114 344.652583 
L 622.169836 344.652583 
z
" clip-path="url(#pb833e4fe53)" style="fill: #470d60; stroke: #000000; stroke-linejoin: miter"/>
   </g>
   <g id="patch_51">
    <path d="M 633.774114 354.958125 
L 645.378392 354.958125 
L 645.378392 350.091619 
L 633.774114 350.091619 
z
" clip-path="url(#pb833e4fe53)" style="fill: #450559; stroke: #000000; stroke-linejoin: miter"/>
   </g>
   <g id="patch_52">
    <path d="M 645.378392 354.958125 
L 656.98267 354.958125 
L 656.98267 354.958125 
L 645.378392 354.958125 
z
" clip-path="url(#pb833e4fe53)" style="fill: #440154; stroke: #000000; stroke-linejoin: miter"/>
   </g>
   <g id="patch_53">
    <path d="M 656.98267 354.958125 
L 668.586949 354.958125 
L 668.586949 342.934992 
L 656.98267 342.934992 
z
" clip-path="url(#pb833e4fe53)" style="fill: #470e61; stroke: #000000; stroke-linejoin: miter"/>
   </g>
   <g id="patch_54">
    <path d="M 668.586949 354.958125 
L 680.191227 354.958125 
L 680.191227 347.515233 
L 668.586949 347.515233 
z
" clip-path="url(#pb833e4fe53)" style="fill: #46085c; stroke: #000000; stroke-linejoin: miter"/>
   </g>
   <g id="patch_55">
    <path d="M 680.191227 354.958125 
L 691.795505 354.958125 
L 691.795505 346.370173 
L 680.191227 346.370173 
z
" clip-path="url(#pb833e4fe53)" style="fill: #460a5d; stroke: #000000; stroke-linejoin: miter"/>
   </g>
   <g id="patch_56">
    <path d="M 691.795505 354.958125 
L 703.399783 354.958125 
L 703.399783 344.652583 
L 691.795505 344.652583 
z
" clip-path="url(#pb833e4fe53)" style="fill: #470d60; stroke: #000000; stroke-linejoin: miter"/>
   </g>
   <g id="patch_57">
    <path d="M 703.399783 354.958125 
L 715.004061 354.958125 
L 715.004061 354.958125 
L 703.399783 354.958125 
z
" clip-path="url(#pb833e4fe53)" style="fill: #440154; stroke: #000000; stroke-linejoin: miter"/>
   </g>
   <g id="patch_58">
    <path d="M 715.004061 354.958125 
L 726.608339 354.958125 
L 726.608339 346.942703 
L 715.004061 346.942703 
z
" clip-path="url(#pb833e4fe53)" style="fill: #460a5d; stroke: #000000; stroke-linejoin: miter"/>
   </g>
   <g id="patch_59">
    <path d="M 726.608339 354.958125 
L 738.212617 354.958125 
L 738.212617 336.350896 
L 726.608339 336.350896 
z
" clip-path="url(#pb833e4fe53)" style="fill: #481668; stroke: #000000; stroke-linejoin: miter"/>
   </g>
   <g id="patch_60">
    <path d="M 738.212617 354.958125 
L 749.816895 354.958125 
L 749.816895 341.789932 
L 738.212617 341.789932 
z
" clip-path="url(#pb833e4fe53)" style="fill: #471063; stroke: #000000; stroke-linejoin: miter"/>
   </g>
   <g id="patch_61">
    <path d="M 749.816895 354.958125 
L 761.421173 354.958125 
L 761.421173 343.793788 
L 749.816895 343.793788 
z
" clip-path="url(#pb833e4fe53)" style="fill: #470d60; stroke: #000000; stroke-linejoin: miter"/>
   </g>
   <g id="patch_62">
    <path d="M 761.421173 354.958125 
L 773.025451 354.958125 
L 773.025451 343.221258 
L 761.421173 343.221258 
z
" clip-path="url(#pb833e4fe53)" style="fill: #470e61; stroke: #000000; stroke-linejoin: miter"/>
   </g>
   <g id="patch_63">
    <path d="M 773.025451 354.958125 
L 784.629729 354.958125 
L 784.629729 326.045354 
L 773.025451 326.045354 
z
" clip-path="url(#pb833e4fe53)" style="fill: #482071; stroke: #000000; stroke-linejoin: miter"/>
   </g>
   <g id="patch_64">
    <path d="M 784.629729 354.958125 
L 796.234007 354.958125 
L 796.234007 306.0068 
L 784.629729 306.0068 
z
" clip-path="url(#pb833e4fe53)" style="fill: #463480; stroke: #000000; stroke-linejoin: miter"/>
   </g>
   <g id="patch_65">
    <path d="M 796.234007 354.958125 
L 807.838285 354.958125 
L 807.838285 337.495956 
L 796.234007 337.495956 
z
" clip-path="url(#pb833e4fe53)" style="fill: #481467; stroke: #000000; stroke-linejoin: miter"/>
   </g>
   <g id="patch_66">
    <path d="M 807.838285 354.958125 
L 819.442564 354.958125 
L 819.442564 354.958125 
L 807.838285 354.958125 
z
" clip-path="url(#pb833e4fe53)" style="fill: #440154; stroke: #000000; stroke-linejoin: miter"/>
   </g>
   <g id="patch_67">
    <path d="M 819.442564 354.958125 
L 831.046842 354.958125 
L 831.046842 25.180776 
L 819.442564 25.180776 
z
" clip-path="url(#pb833e4fe53)" style="fill: #fde725; stroke: #000000; stroke-linejoin: miter"/>
   </g>
   <g id="matplotlib.axis_3">
    <g id="xtick_7">
     <g id="line2d_13">
      <g>
       <use xlink:href="#mc516bf8693" x="482.918499" y="354.958125" style="stroke: #000000; stroke-width: 0.8"/>
      </g>
     </g>
     <g id="text_16">
      <!-- 0 -->
      <g transform="translate(479.737249 369.556562) scale(0.1 -0.1)">
       <use xlink:href="#DejaVuSans-30"/>
      </g>
     </g>
    </g>
    <g id="xtick_8">
     <g id="line2d_14">
      <g>
       <use xlink:href="#mc516bf8693" x="552.544168" y="354.958125" style="stroke: #000000; stroke-width: 0.8"/>
      </g>
     </g>
     <g id="text_17">
      <!-- 20 -->
      <g transform="translate(546.181668 369.556562) scale(0.1 -0.1)">
       <use xlink:href="#DejaVuSans-32"/>
       <use xlink:href="#DejaVuSans-30" x="63.623047"/>
      </g>
     </g>
    </g>
    <g id="xtick_9">
     <g id="line2d_15">
      <g>
       <use xlink:href="#mc516bf8693" x="622.169836" y="354.958125" style="stroke: #000000; stroke-width: 0.8"/>
      </g>
     </g>
     <g id="text_18">
      <!-- 40 -->
      <g transform="translate(615.807336 369.556562) scale(0.1 -0.1)">
       <use xlink:href="#DejaVuSans-34"/>
       <use xlink:href="#DejaVuSans-30" x="63.623047"/>
      </g>
     </g>
    </g>
    <g id="xtick_10">
     <g id="line2d_16">
      <g>
       <use xlink:href="#mc516bf8693" x="691.795505" y="354.958125" style="stroke: #000000; stroke-width: 0.8"/>
      </g>
     </g>
     <g id="text_19">
      <!-- 60 -->
      <g transform="translate(685.433005 369.556562) scale(0.1 -0.1)">
       <use xlink:href="#DejaVuSans-36"/>
       <use xlink:href="#DejaVuSans-30" x="63.623047"/>
      </g>
     </g>
    </g>
    <g id="xtick_11">
     <g id="line2d_17">
      <g>
       <use xlink:href="#mc516bf8693" x="761.421173" y="354.958125" style="stroke: #000000; stroke-width: 0.8"/>
      </g>
     </g>
     <g id="text_20">
      <!-- 80 -->
      <g transform="translate(755.058673 369.556562) scale(0.1 -0.1)">
       <use xlink:href="#DejaVuSans-38"/>
       <use xlink:href="#DejaVuSans-30" x="63.623047"/>
      </g>
     </g>
    </g>
    <g id="xtick_12">
     <g id="line2d_18">
      <g>
       <use xlink:href="#mc516bf8693" x="831.046842" y="354.958125" style="stroke: #000000; stroke-width: 0.8"/>
      </g>
     </g>
     <g id="text_21">
      <!-- 100 -->
      <g transform="translate(821.503092 369.556562) scale(0.1 -0.1)">
       <use xlink:href="#DejaVuSans-31"/>
       <use xlink:href="#DejaVuSans-30" x="63.623047"/>
       <use xlink:href="#DejaVuSans-30" x="127.246094"/>
      </g>
     </g>
    </g>
    <g id="text_22">
     <!-- True Intelligibility [%] -->
     <g transform="translate(595.637358 383.234687) scale(0.1 -0.1)">
      <defs>
       <path id="DejaVuSans-Bold-54" d="M 31 4666 
L 4331 4666 
L 4331 3756 
L 2784 3756 
L 2784 0 
L 1581 0 
L 1581 3756 
L 31 3756 
L 31 4666 
z
" transform="scale(0.015625)"/>
      </defs>
      <use xlink:href="#DejaVuSans-Bold-54"/>
      <use xlink:href="#DejaVuSans-Bold-72" x="57.212891"/>
      <use xlink:href="#DejaVuSans-Bold-75" x="106.529297"/>
      <use xlink:href="#DejaVuSans-Bold-65" x="177.720703"/>
      <use xlink:href="#DejaVuSans-Bold-20" x="245.542969"/>
      <use xlink:href="#DejaVuSans-Bold-49" x="280.357422"/>
      <use xlink:href="#DejaVuSans-Bold-6e" x="317.564453"/>
      <use xlink:href="#DejaVuSans-Bold-74" x="388.755859"/>
      <use xlink:href="#DejaVuSans-Bold-65" x="436.558594"/>
      <use xlink:href="#DejaVuSans-Bold-6c" x="504.380859"/>
      <use xlink:href="#DejaVuSans-Bold-6c" x="538.658203"/>
      <use xlink:href="#DejaVuSans-Bold-69" x="572.935547"/>
      <use xlink:href="#DejaVuSans-Bold-67" x="607.212891"/>
      <use xlink:href="#DejaVuSans-Bold-69" x="678.794922"/>
      <use xlink:href="#DejaVuSans-Bold-62" x="713.072266"/>
      <use xlink:href="#DejaVuSans-Bold-69" x="784.654297"/>
      <use xlink:href="#DejaVuSans-Bold-6c" x="818.931641"/>
      <use xlink:href="#DejaVuSans-Bold-69" x="853.208984"/>
      <use xlink:href="#DejaVuSans-Bold-74" x="887.486328"/>
      <use xlink:href="#DejaVuSans-Bold-79" x="935.289062"/>
      <use xlink:href="#DejaVuSans-Bold-20" x="1000.474609"/>
      <use xlink:href="#DejaVuSans-Bold-5b" x="1035.289062"/>
      <use xlink:href="#DejaVuSans-Bold-25" x="1080.992188"/>
      <use xlink:href="#DejaVuSans-Bold-5d" x="1181.1875"/>
     </g>
    </g>
   </g>
   <g id="matplotlib.axis_4">
    <g id="ytick_7">
     <g id="line2d_19">
      <g>
       <use xlink:href="#me2afe58298" x="479.437216" y="354.958125" style="stroke: #000000; stroke-width: 0.8"/>
      </g>
     </g>
     <g id="text_23">
      <!-- 0 -->
      <g transform="translate(466.074716 358.757344) scale(0.1 -0.1)">
       <use xlink:href="#DejaVuSans-30"/>
      </g>
     </g>
    </g>
    <g id="ytick_8">
     <g id="line2d_20">
      <g>
       <use xlink:href="#me2afe58298" x="479.437216" y="297.705113" style="stroke: #000000; stroke-width: 0.8"/>
      </g>
     </g>
     <g id="text_24">
      <!-- 200 -->
      <g transform="translate(453.349716 301.504332) scale(0.1 -0.1)">
       <use xlink:href="#DejaVuSans-32"/>
       <use xlink:href="#DejaVuSans-30" x="63.623047"/>
       <use xlink:href="#DejaVuSans-30" x="127.246094"/>
      </g>
     </g>
    </g>
    <g id="ytick_9">
     <g id="line2d_21">
      <g>
       <use xlink:href="#me2afe58298" x="479.437216" y="240.452101" style="stroke: #000000; stroke-width: 0.8"/>
      </g>
     </g>
     <g id="text_25">
      <!-- 400 -->
      <g transform="translate(453.349716 244.25132) scale(0.1 -0.1)">
       <use xlink:href="#DejaVuSans-34"/>
       <use xlink:href="#DejaVuSans-30" x="63.623047"/>
       <use xlink:href="#DejaVuSans-30" x="127.246094"/>
      </g>
     </g>
    </g>
    <g id="ytick_10">
     <g id="line2d_22">
      <g>
       <use xlink:href="#me2afe58298" x="479.437216" y="183.199089" style="stroke: #000000; stroke-width: 0.8"/>
      </g>
     </g>
     <g id="text_26">
      <!-- 600 -->
      <g transform="translate(453.349716 186.998308) scale(0.1 -0.1)">
       <use xlink:href="#DejaVuSans-36"/>
       <use xlink:href="#DejaVuSans-30" x="63.623047"/>
       <use xlink:href="#DejaVuSans-30" x="127.246094"/>
      </g>
     </g>
    </g>
    <g id="ytick_11">
     <g id="line2d_23">
      <g>
       <use xlink:href="#me2afe58298" x="479.437216" y="125.946077" style="stroke: #000000; stroke-width: 0.8"/>
      </g>
     </g>
     <g id="text_27">
      <!-- 800 -->
      <g transform="translate(453.349716 129.745296) scale(0.1 -0.1)">
       <use xlink:href="#DejaVuSans-38"/>
       <use xlink:href="#DejaVuSans-30" x="63.623047"/>
       <use xlink:href="#DejaVuSans-30" x="127.246094"/>
      </g>
     </g>
    </g>
    <g id="ytick_12">
     <g id="line2d_24">
      <g>
       <use xlink:href="#me2afe58298" x="479.437216" y="68.693065" style="stroke: #000000; stroke-width: 0.8"/>
      </g>
     </g>
     <g id="text_28">
      <!-- 1000 -->
      <g transform="translate(446.987216 72.492284) scale(0.1 -0.1)">
       <use xlink:href="#DejaVuSans-31"/>
       <use xlink:href="#DejaVuSans-30" x="63.623047"/>
       <use xlink:href="#DejaVuSans-30" x="127.246094"/>
       <use xlink:href="#DejaVuSans-30" x="190.869141"/>
      </g>
     </g>
    </g>
    <g id="text_29">
     <!-- Number of Occurrences -->
     <g transform="translate(440.907528 255.070937) rotate(-90) scale(0.1 -0.1)">
      <use xlink:href="#DejaVuSans-Bold-4e"/>
      <use xlink:href="#DejaVuSans-Bold-75" x="83.691406"/>
      <use xlink:href="#DejaVuSans-Bold-6d" x="154.882812"/>
      <use xlink:href="#DejaVuSans-Bold-62" x="259.082031"/>
      <use xlink:href="#DejaVuSans-Bold-65" x="330.664062"/>
      <use xlink:href="#DejaVuSans-Bold-72" x="398.486328"/>
      <use xlink:href="#DejaVuSans-Bold-20" x="447.802734"/>
      <use xlink:href="#DejaVuSans-Bold-6f" x="482.617188"/>
      <use xlink:href="#DejaVuSans-Bold-66" x="551.318359"/>
      <use xlink:href="#DejaVuSans-Bold-20" x="594.824219"/>
      <use xlink:href="#DejaVuSans-Bold-4f" x="629.638672"/>
      <use xlink:href="#DejaVuSans-Bold-63" x="714.648438"/>
      <use xlink:href="#DejaVuSans-Bold-63" x="773.925781"/>
      <use xlink:href="#DejaVuSans-Bold-75" x="833.203125"/>
      <use xlink:href="#DejaVuSans-Bold-72" x="904.394531"/>
      <use xlink:href="#DejaVuSans-Bold-72" x="953.710938"/>
      <use xlink:href="#DejaVuSans-Bold-65" x="1003.027344"/>
      <use xlink:href="#DejaVuSans-Bold-6e" x="1070.849609"/>
      <use xlink:href="#DejaVuSans-Bold-63" x="1142.041016"/>
      <use xlink:href="#DejaVuSans-Bold-65" x="1201.318359"/>
      <use xlink:href="#DejaVuSans-Bold-73" x="1269.140625"/>
     </g>
    </g>
   </g>
   <g id="patch_68">
    <path d="M 479.437216 354.958125 
L 479.437216 22.318125 
" style="fill: none; stroke: #000000; stroke-width: 0.8; stroke-linejoin: miter; stroke-linecap: square"/>
   </g>
   <g id="patch_69">
    <path d="M 834.528125 354.958125 
L 834.528125 22.318125 
" style="fill: none; stroke: #000000; stroke-width: 0.8; stroke-linejoin: miter; stroke-linecap: square"/>
   </g>
   <g id="patch_70">
    <path d="M 479.437216 354.958125 
L 834.528125 354.958125 
" style="fill: none; stroke: #000000; stroke-width: 0.8; stroke-linejoin: miter; stroke-linecap: square"/>
   </g>
   <g id="patch_71">
    <path d="M 479.437216 22.318125 
L 834.528125 22.318125 
" style="fill: none; stroke: #000000; stroke-width: 0.8; stroke-linejoin: miter; stroke-linecap: square"/>
   </g>
   <g id="text_30">
    <!-- Distribution of True Intelligibility -->
    <g transform="translate(545.66767 16.318125) scale(0.12 -0.12)">
     <use xlink:href="#DejaVuSans-Bold-44"/>
     <use xlink:href="#DejaVuSans-Bold-69" x="83.007812"/>
     <use xlink:href="#DejaVuSans-Bold-73" x="117.285156"/>
     <use xlink:href="#DejaVuSans-Bold-74" x="176.806641"/>
     <use xlink:href="#DejaVuSans-Bold-72" x="224.609375"/>
     <use xlink:href="#DejaVuSans-Bold-69" x="273.925781"/>
     <use xlink:href="#DejaVuSans-Bold-62" x="308.203125"/>
     <use xlink:href="#DejaVuSans-Bold-75" x="379.785156"/>
     <use xlink:href="#DejaVuSans-Bold-74" x="450.976562"/>
     <use xlink:href="#DejaVuSans-Bold-69" x="498.779297"/>
     <use xlink:href="#DejaVuSans-Bold-6f" x="533.056641"/>
     <use xlink:href="#DejaVuSans-Bold-6e" x="601.757812"/>
     <use xlink:href="#DejaVuSans-Bold-20" x="672.949219"/>
     <use xlink:href="#DejaVuSans-Bold-6f" x="707.763672"/>
     <use xlink:href="#DejaVuSans-Bold-66" x="776.464844"/>
     <use xlink:href="#DejaVuSans-Bold-20" x="819.970703"/>
     <use xlink:href="#DejaVuSans-Bold-54" x="854.785156"/>
     <use xlink:href="#DejaVuSans-Bold-72" x="911.998047"/>
     <use xlink:href="#DejaVuSans-Bold-75" x="961.314453"/>
     <use xlink:href="#DejaVuSans-Bold-65" x="1032.505859"/>
     <use xlink:href="#DejaVuSans-Bold-20" x="1100.328125"/>
     <use xlink:href="#DejaVuSans-Bold-49" x="1135.142578"/>
     <use xlink:href="#DejaVuSans-Bold-6e" x="1172.349609"/>
     <use xlink:href="#DejaVuSans-Bold-74" x="1243.541016"/>
     <use xlink:href="#DejaVuSans-Bold-65" x="1291.34375"/>
     <use xlink:href="#DejaVuSans-Bold-6c" x="1359.166016"/>
     <use xlink:href="#DejaVuSans-Bold-6c" x="1393.443359"/>
     <use xlink:href="#DejaVuSans-Bold-69" x="1427.720703"/>
     <use xlink:href="#DejaVuSans-Bold-67" x="1461.998047"/>
     <use xlink:href="#DejaVuSans-Bold-69" x="1533.580078"/>
     <use xlink:href="#DejaVuSans-Bold-62" x="1567.857422"/>
     <use xlink:href="#DejaVuSans-Bold-69" x="1639.439453"/>
     <use xlink:href="#DejaVuSans-Bold-6c" x="1673.716797"/>
     <use xlink:href="#DejaVuSans-Bold-69" x="1707.994141"/>
     <use xlink:href="#DejaVuSans-Bold-74" x="1742.271484"/>
     <use xlink:href="#DejaVuSans-Bold-79" x="1790.074219"/>
    </g>
   </g>
  </g>
 </g>
 <defs>
  <clipPath id="p82a25d1d4d">
   <rect x="53.328125" y="22.318125" width="355.090909" height="332.64"/>
  </clipPath>
  <clipPath id="pb833e4fe53">
   <rect x="479.437216" y="22.318125" width="355.090909" height="332.64"/>
  </clipPath>
 </defs>
</svg>
